<?xml version="1.0" encoding="utf-8"?>
<!-- Generator: Adobe Illustrator 16.0.0, SVG Export Plug-In . SVG Version: 6.00 Build 0)  -->
<!DOCTYPE svg PUBLIC "-//W3C//DTD SVG 1.1//EN" "http://www.w3.org/Graphics/SVG/1.1/DTD/svg11.dtd">
<svg version="1.1"
	 id="Capa_1" xmlns:dc="http://purl.org/dc/elements/1.1/" xmlns:cc="http://creativecommons.org/ns#" xmlns:rdf="http://www.w3.org/1999/02/22-rdf-syntax-ns#" xmlns:svg="http://www.w3.org/2000/svg" xmlns:sodipodi="http://sodipodi.sourceforge.net/DTD/sodipodi-0.dtd" xmlns:inkscape="http://www.inkscape.org/namespaces/inkscape" inkscape:export-ydpi="90" inkscape:export-xdpi="90" inkscape:export-filename="C:\Users\Mehrdad\Desktop\176x176.png" sodipodi:docname="shopping-cart13.svg" inkscape:version="0.48.4 r9939"
	 xmlns="http://www.w3.org/2000/svg" xmlns:xlink="http://www.w3.org/1999/xlink" x="0px" y="0px" width="128px" height="128px"
	 viewBox="0.5 0.5 128 128" enable-background="new 0.5 0.5 128 128" xml:space="preserve">
<sodipodi:namedview  inkscape:cy="79.812574" inkscape:cx="72.282572" inkscape:zoom="2.2418499" showgrid="false" guidetolerance="10" gridtolerance="10" objecttolerance="10" borderopacity="1" pagecolor="#000000" bordercolor="#666666" id="namedview3073" inkscape:current-layer="Capa_1" inkscape:window-y="-8" inkscape:window-maximized="1" inkscape:window-x="54" inkscape:window-height="745" inkscape:pageshadow="2" inkscape:window-width="1304" inkscape:pageopacity="0">
	</sodipodi:namedview>
<path id="path3039" inkscape:connector-curvature="0" fill="#804DAD" stroke="#804DAD" stroke-width="3" stroke-miterlimit="10" d="
	M41.426,120.477c5.087,0,9.224-4.559,9.224-10.162s-4.137-10.162-9.224-10.162c-5.087,0-9.223,4.558-9.223,10.162
	C32.204,115.919,36.341,120.477,41.426,120.477z"/>
<path id="path3041" inkscape:connector-curvature="0" fill="#804DAD" stroke="#804DAD" stroke-width="3" stroke-miterlimit="10" d="
	M99.075,120.5c0.204,0,0.477,0,0.68,0c2.44-0.225,4.681-1.42,6.308-3.511c1.629-2.019,2.373-4.634,2.239-7.399
	c-0.339-5.529-4.75-9.789-9.838-9.416c-5.084,0.372-8.884,5.307-8.544,10.837C90.26,116.314,94.262,120.5,99.075,120.5L99.075,120.5
	z"/>
<path id="path3039-1" inkscape:connector-curvature="0" fill="#804DAD" stroke="#804DAD" stroke-width="3" stroke-miterlimit="10" d="
	M70.124,120.477c5.087,0,9.224-4.559,9.224-10.162s-4.137-10.162-9.224-10.162S60.9,104.71,60.9,110.314
	S65.037,120.477,70.124,120.477z"/>
<path id="path3037" inkscape:connector-curvature="0" fill="#804DAD" stroke="#804DAD" stroke-width="3" stroke-miterlimit="10" d="
	M12.57,19.467h11.665l16.618,66.21c0.473,1.941,2.102,3.287,3.933,3.287h51.069c1.629,0,3.057-1.048,3.73-2.688l18.584-47.081
	c0.541-1.42,0.408-2.989-0.338-4.26s-2.035-2.017-3.391-2.017h-56.43c-2.238,0-4.069,2.017-4.069,4.484
	c0,2.467,1.831,4.483,4.069,4.483H108.2L93.143,79.997H47.837l-16.616-66.21c-0.475-1.943-2.103-3.287-3.934-3.287H12.57
	c-2.239,0-4.07,2.017-4.07,4.483C8.5,17.449,10.331,19.467,12.57,19.467L12.57,19.467z"/>
<g id="g3043" transform="translate(0,-283.52901)">
</g>
<g id="g3045" transform="translate(0,-283.52901)">
</g>
<g id="g3047" transform="translate(0,-283.52901)">
</g>
<g id="g3049" transform="translate(0,-283.52901)">
</g>
<g id="g3051" transform="translate(0,-283.52901)">
</g>
<g id="g3053" transform="translate(0,-283.52901)">
</g>
<g id="g3055" transform="translate(0,-283.52901)">
</g>
<g id="g3057" transform="translate(0,-283.52901)">
</g>
<g id="g3059" transform="translate(0,-283.52901)">
</g>
<g id="g3061" transform="translate(0,-283.52901)">
</g>
<g id="g3063" transform="translate(0,-283.52901)">
</g>
<g id="g3065" transform="translate(0,-283.52901)">
</g>
<g id="g3067" transform="translate(0,-283.52901)">
</g>
<g id="g3069" transform="translate(0,-283.52901)">
</g>
<g id="g3071" transform="translate(0,-283.52901)">
</g>
</svg>
